<svg id="visual" viewBox="0 0 1200 100" width="1200" height="100" xmlns="http://www.w3.org/2000/svg" xmlns:xlink="http://www.w3.org/1999/xlink" version="1.1"><rect x="0" y="0" width="1200" height="100" fill="#282A35"></rect><path d="M0 70L40 69C80 68 160 66 240 66.2C320 66.3 400 68.7 480 69.5C560 70.3 640 69.7 720 67.7C800 65.7 880 62.3 960 60.5C1040 58.7 1120 58.3 1160 58.2L1200 58L1200 101L1160 101C1120 101 1040 101 960 101C880 101 800 101 720 101C640 101 560 101 480 101C400 101 320 101 240 101C160 101 80 101 40 101L0 101Z" fill="#D9EEE1" stroke-linecap="round" stroke-linejoin="miter"></path></svg>